<?xml version="1.0" encoding="UTF-8"?>
<!-- Generator: Adobe Illustrator 18.1.1, SVG Export Plug-In . SVG Version: 6.00 Build 0)  -->
<!DOCTYPE svg PUBLIC "-//W3C//DTD SVG 1.1//EN" "http://www.w3.org/Graphics/SVG/1.1/DTD/svg11.dtd">
<svg version="1.1" id="Layer_1" xmlns="http://www.w3.org/2000/svg" xmlns:xlink="http://www.w3.org/1999/xlink" x="0px" y="0px" viewBox="0 0 544.4 80" enable-background="new 0 0 544.4 80" xml:space="preserve">
<g>
	<path fill="#38414F" d="M16.1,57c0.6,7,7.4,10.3,15.3,10.3c5.8,0,10.4-0.8,15-2.2l2.2,11.4c-5.5,2.2-12.3,3.3-19.6,3.3   c-18.4,0-29-10.7-29-27.6c0-13.8,8.5-29,27.4-29c17.5,0,24.2,13.6,24.2,27.1c0,2.9-0.3,5.4-0.6,6.7H16.1z M36,45.5   c0-4.1-1.8-11-9.5-11c-7.1,0-10,6.4-10.4,11H36z"/>
	<path fill="#38414F" d="M112.9,61.4c0,7.1,0.2,12.9,0.4,17.4H98.7l-0.8-7.7h-0.3c-2.1,3.3-7.2,8.9-17,8.9c-11,0-19.1-6.9-19.1-23.6   V24.5h17v29.2c0,7.9,2.6,12.6,8.4,12.6c4.7,0,7.3-3.2,8.4-5.9c0.4-1,0.6-2.3,0.6-3.7V24.5h17V61.4z"/>
	<path fill="#E57747" d="M178.4,45.6c0,19.9-13.5,34.4-32.4,34.4c-13.8,0-23-9-23-22.4c0-18.9,13.1-34.3,32.4-34.3   C169.9,23.3,178.4,33.3,178.4,45.6z M139.5,57.3c0,6.3,3.1,10.5,8.7,10.5c8.8,0,13.6-12.8,13.6-22.1c0-5-2.1-10.3-8.5-10.3   C144.1,35.4,139.4,48.8,139.5,57.3z"/>
	<path fill="#E57747" d="M214,0l-6.4,31h0.2c4-4.8,10.1-7.7,16.8-7.7c11.3,0,16.4,9.2,16.4,18.9c0,17.6-11.5,37.8-36,37.8   c-12.9,0-19.3-5.5-19.3-15.2c0-3.3,0.6-6.7,1.2-9.9l11-54.9H214z M202.8,55.9c-0.2,1.8-0.7,3.7-0.6,6c0.1,3.9,2.4,6,6.1,6   c9.2,0,15.9-12.9,15.9-22.4c0-5.2-2.2-9.3-7.1-9.3c-5.8,0-11.4,5.9-13.3,15.3L202.8,55.9z"/>
	<path fill="#E57747" d="M247.3,64.5c3.1,1.6,9,3.8,14.2,3.8c4.5,0,6.9-2.2,6.9-4.9c0-2.7-1.8-4.5-6.8-7   c-6.3-3.1-11.5-7.7-11.5-14.4c0-11.2,9.9-18.6,23.9-18.6c6.3,0,11.3,1.2,14,2.8l-3.8,11.3c-2.3-1.1-6.1-2.4-10.9-2.4   c-4.2,0-7.1,1.9-7.1,4.8c0,2.2,2.2,4.1,6.7,6.2c5.9,3,12.1,7.3,12.1,14.9c0,12.4-10.5,19.1-24.9,19.1c-6.9,0-13.4-1.8-16.6-4.2   L247.3,64.5z"/>
	<path fill="#E57747" d="M336.9,75.7c-6.3,3.2-14.2,4.2-20.2,4.2c-15.5,0-23.5-8.8-23.5-22.9c0-16.5,12-33.7,31.6-33.7   c11,0,18.9,6.1,18.9,16.2c0,13.9-13.4,18.9-35.2,18.3c0,1.6,0.6,4,1.7,5.5c2.1,2.8,5.8,4.2,10.4,4.2c5.9,0,10.9-1.3,15.2-3.4   L336.9,75.7z M322.8,35c-7.4,0-11.7,6.1-12.8,11.2c12.4,0.1,18.6-1.7,18.6-6.6C328.7,36.8,326.5,35,322.8,35z"/>
	<path fill="#E57747" d="M347.2,78.8l6.1-32.3c1.6-8.2,2.2-17.3,2.8-22h13.9c-0.3,3.7-0.7,7.3-1,11.1h0.3   c3.8-7.2,9.9-12.3,17.3-12.3c1,0,2,0,3,0.1l-3.1,15.5c-0.8-0.1-1.7-0.1-2.5-0.1c-10.2,0-15,9.1-17,19.8l-3.8,20.2H347.2z"/>
	<path fill="#E57747" d="M410.8,24.5l2.4,23.7c0.6,6.7,1.2,10.8,1.4,14.8h0.4c1.3-3.9,3.1-8,6-14.6l11-23.9h17.9l-30.3,54.3h-16.2   l-9.2-54.3H410.8z"/>
	<path fill="#E57747" d="M491.8,75.7c-6.3,3.2-14.2,4.2-20.2,4.2c-15.5,0-23.5-8.8-23.5-22.9c0-16.5,12-33.7,31.6-33.7   c11,0,18.9,6.1,18.9,16.2c0,13.9-13.4,18.9-35.2,18.3c0,1.6,0.6,4,1.7,5.5c2.1,2.8,5.8,4.2,10.4,4.2c5.9,0,10.9-1.3,15.2-3.4   L491.8,75.7z M477.7,35c-7.4,0-11.7,6.1-12.8,11.2c12.4,0.1,18.6-1.7,18.6-6.6C483.6,36.8,481.4,35,477.7,35z"/>
	<path fill="#E57747" d="M502,78.8l6.1-32.3c1.6-8.2,2.2-17.3,2.8-22h13.9c-0.3,3.7-0.7,7.3-1,11.1h0.3c3.8-7.2,9.9-12.3,17.3-12.3   c1,0,2,0,3,0.1l-3.1,15.5c-0.8-0.1-1.7-0.1-2.5-0.1c-10.2,0-15,9.1-17,19.8L518,78.8H502z"/>
</g>
</svg>